<svg width="107" height="32" viewBox="0 0 107 32" fill="none" xmlns="http://www.w3.org/2000/svg">
<path d="M32.3138 16.0005C32.3138 20.4222 30.5047 24.4215 27.5799 27.312C24.656 30.2075 20.6164 32 16.1574 32H5.70823C2.55761 32 0 29.4672 0 26.3472V5.65875C0 4.09576 0.641159 2.68182 1.67464 1.65937C2.7031 0.634933 4.13593 0 5.70823 0H16.1564C25.0805 0 32.3138 7.16212 32.3138 16.0005Z" fill="white"/>
<path d="M24.3371 16.0019C24.3381 16.61 24.1033 17.2201 23.6357 17.6821L17.4268 23.8307C16.9572 24.2948 16.3432 24.5263 15.7291 24.5263C15.114 24.5263 14.4989 24.2948 14.0314 23.8307L7.82346 17.6841C7.35388 17.2191 7.12109 16.61 7.12109 16.0009C7.12109 15.3928 7.35388 14.7837 7.82346 14.3197L14.0314 8.17005C14.4999 7.70702 15.116 7.47451 15.7291 7.47649C16.3432 7.47649 16.9572 7.70702 17.4268 8.17204L23.6347 14.3187C24.1023 14.7837 24.3371 15.3938 24.3371 16.0019Z" fill="#FF4300"/>
<path d="M105.611 18.0381C104.916 18.0381 104.353 18.5955 104.353 19.2841V25.6772L96.9536 18.4048C96.7479 18.2021 96.4891 18.0868 96.2212 18.054C96.1609 18.0451 96.0987 18.0391 96.0365 18.0391C95.3422 18.0391 94.7793 18.5965 94.7793 19.2851V28.6601C94.7793 29.3477 95.3422 29.9051 96.0365 29.9051C96.7309 29.9051 97.2948 29.3477 97.2948 28.6601V22.2501L104.721 29.5484C104.968 29.7908 105.29 29.911 105.611 29.9101H105.612C106.306 29.9091 106.868 29.3516 106.868 28.665V19.2861C106.868 18.5965 106.305 18.0381 105.611 18.0381Z" fill="white"/>
<path d="M62.9157 18.0381C62.2213 18.0381 61.6575 18.5955 61.6575 19.2841V23.9731C61.6575 25.8719 60.0972 27.417 58.1797 27.417C56.2623 27.417 54.702 25.8719 54.702 23.9731V19.2841C54.702 18.5965 54.1391 18.0381 53.4438 18.0381C52.7495 18.0381 52.1855 18.5955 52.1855 19.2841V23.9731C52.1855 27.2461 54.8746 29.9081 58.1787 29.9081C61.4839 29.9081 64.1719 27.2451 64.1719 23.9731V19.2841C64.1739 18.5965 63.61 18.0381 62.9157 18.0381Z" fill="white"/>
<path d="M43.9902 18.0371H40.945C39.3195 18.0371 37.998 19.3467 37.998 20.9554V26.9898C37.998 28.5985 39.3205 29.9081 40.945 29.9081H43.9902C47.2954 29.9081 49.9834 27.2451 49.9834 23.9731C49.9834 20.6991 47.2944 18.0371 43.9902 18.0371ZM43.9902 27.417H40.945C40.7072 27.417 40.5135 27.2253 40.5135 26.9898V20.9554C40.5135 20.7199 40.7072 20.5282 40.945 20.5282H43.9902C45.9077 20.5282 47.4679 22.0733 47.4679 23.9721C47.4679 25.8719 45.9077 27.417 43.9902 27.417Z" fill="white"/>
<path d="M86.5811 18.0381C83.2759 18.0381 80.5879 20.7011 80.5879 23.9731V28.6621C80.5879 29.3496 81.1508 29.9081 81.8451 29.9081C82.5395 29.9081 83.1034 29.3506 83.1034 28.6621V26.7871H90.0598V28.6621C90.0598 29.3496 90.6227 29.9081 91.317 29.9081C92.0114 29.9081 92.5753 29.3506 92.5753 28.6621V23.9731C92.5753 20.7011 89.8862 18.0381 86.5811 18.0381ZM83.1034 24.297V23.9741C83.1034 22.0752 84.6636 20.5301 86.5811 20.5301C88.4985 20.5301 90.0588 22.0752 90.0588 23.9741V24.297H83.1034Z" fill="white"/>
<path d="M73.7869 23.2977L77.8737 20.293C78.4316 19.8826 78.5479 19.1026 78.1335 18.5501C77.7192 17.9977 76.9315 17.8824 76.3736 18.2928L68.8924 23.7935V19.2824C68.8924 18.5948 68.3295 18.0364 67.6352 18.0364C66.9409 18.0364 66.377 18.5938 66.377 19.2824V28.6216C66.377 29.3092 66.9398 29.8666 67.6352 29.8666C68.3295 29.8666 68.8924 29.3092 68.8924 28.6216V26.8957L71.7541 24.7911L76.2091 29.5089C76.4569 29.7712 76.792 29.9034 77.1282 29.9034C77.4362 29.9034 77.7442 29.7921 77.9871 29.5675C78.4948 29.0976 78.5209 28.3096 78.0463 27.8068L73.7869 23.2977Z" fill="white"/>
<path d="M105.61 2.09149C104.915 2.09149 104.352 2.64892 104.352 3.33751V12.6767C104.352 13.3643 104.914 13.9227 105.61 13.9227C106.304 13.9227 106.867 13.3653 106.867 12.6767V3.33652C106.867 2.64892 106.304 2.09149 105.61 2.09149Z" fill="white"/>
<path d="M81.8442 13.9217H86.5771H87.7541H98.5314C100.528 13.9217 102.153 12.313 102.153 10.3357V3.33652C102.153 2.64892 101.59 2.09149 100.895 2.09149C100.201 2.09149 99.6371 2.64892 99.6371 3.33652V10.3357C99.6371 10.9398 99.1414 11.4307 98.5314 11.4307H91.9713C92.3395 10.759 92.5482 9.98989 92.5482 9.17313C92.5482 6.5549 90.397 4.42455 87.7531 4.42455H83.4416C82.7472 4.42455 82.1833 4.98198 82.1833 5.67056C82.1833 6.35816 82.7462 6.91559 83.4416 6.91559H87.7531C89.0103 6.91559 90.0328 7.9281 90.0328 9.17313C90.0328 10.4181 89.0103 11.4307 87.7531 11.4307H86.5761H81.8442C81.1498 11.4307 80.5859 11.9881 80.5859 12.6757C80.5869 13.3643 81.1498 13.9217 81.8442 13.9217Z" fill="white"/>
<path d="M77.1275 2.08911H60.5216C58.5279 2.08911 56.9054 3.69581 56.9054 5.67017C56.9054 7.64452 58.5279 9.25122 60.5216 9.25122H70.3597H74.0612H74.7656C75.3726 9.25122 75.8663 9.74009 75.8663 10.3412C75.8663 10.9424 75.3726 11.4313 74.7656 11.4313H67.763H67.2994H55.8077C55.1976 11.4313 54.702 10.9404 54.702 10.3363V3.33612C54.702 2.64852 54.1391 2.0901 53.4447 2.0901C52.7504 2.0901 52.1875 2.64753 52.1875 3.33612V10.3353C52.1875 12.3126 53.812 13.9213 55.8087 13.9213H67.2994H67.763H74.7656C76.7593 13.9213 78.3817 12.3146 78.3817 10.3402C78.3817 8.3659 76.7593 6.75919 74.7656 6.75919H74.0612H70.3597H60.5216C59.9145 6.75919 59.4209 6.27032 59.4209 5.66917C59.4209 5.06802 59.9145 4.57915 60.5216 4.57915H77.1265C77.8208 4.57915 78.3837 4.02173 78.3837 3.33413C78.3847 2.64654 77.8218 2.08911 77.1275 2.08911Z" fill="white"/>
<path d="M48.7262 4.57029C48.0318 4.57029 47.4679 5.12772 47.4679 5.8163V7.9864C47.4679 9.88524 45.9077 11.4303 43.9902 11.4303C42.0728 11.4303 40.5125 9.88524 40.5125 7.9864V5.8163C40.5125 5.12871 39.9496 4.57029 39.2553 4.57029C38.5609 4.57029 37.998 5.12772 37.998 5.8163V7.9864C37.998 11.2594 40.6871 13.9214 43.9912 13.9214C47.2954 13.9214 49.9844 11.2584 49.9844 7.9864V5.8163C49.9834 5.12772 49.4205 4.57029 48.7262 4.57029Z" fill="white"/>
<path d="M43.6197 6.29687C43.7231 6.39921 43.8585 6.44989 43.993 6.44989C44.1274 6.44989 44.2639 6.39921 44.3662 6.29687L45.7328 4.94354C45.8352 4.84218 45.8874 4.70705 45.8874 4.5739C45.8874 4.43976 45.8362 4.30562 45.7328 4.20427L44.3672 2.85193C44.2639 2.74959 44.1284 2.69891 43.994 2.69891C43.8585 2.69891 43.7231 2.74959 43.6207 2.85193L42.2541 4.20526C42.1508 4.30761 42.0996 4.44175 42.0996 4.5749C42.0996 4.70904 42.1508 4.84318 42.2541 4.94552L43.6197 6.29687Z" fill="white"/>
</svg>
